<?xml version="1.0" standalone="no"?><!DOCTYPE svg PUBLIC "-//W3C//DTD SVG 1.1//EN" "http://www.w3.org/Graphics/SVG/1.1/DTD/svg11.dtd"><svg t="1743314258011" class="icon" viewBox="0 0 1024 1024" version="1.1" xmlns="http://www.w3.org/2000/svg" p-id="7345" width="256" height="256" xmlns:xlink="http://www.w3.org/1999/xlink"><path d="M716.4 615.9c37.8 0 67.4 29.7 67.4 67.4 0 13.5-5.4 27-13.5 37.8 37.8-62 56.7-134.9 56.7-210.4C827 284 643.5 97.9 414.2 97.9S4.1 281.3 4.1 510.6c0 75.5 18.9 143 54 205-2.7-10.8-5.4-21.6-5.4-32.4 0-37.8 29.7-67.4 67.4-67.4 24.3 0 45.9 13.5 56.7 32.4-24.3-40.5-37.8-89-37.8-137.6 0-153.8 124.1-277.9 277.9-277.9 153.8 0 280.6 124.1 280.6 277.9 0 51.3-13.5 99.8-37.8 140.3 10.8-21.6 32.4-35 56.7-35z" fill="#28B75A" p-id="7346"></path><path d="M783.8 683.3c0-37.8-29.7-67.4-67.4-67.4-24.3 0-45.9 13.5-56.7 32.4-48.6 83.6-137.6 140.3-240.1 140.3S228.1 731.9 179.5 651c-10.8-21.6-32.4-35.1-59.3-35.1-37.8 0-67.4 29.7-67.4 67.4 0 13.5 5.4 27 10.8 37.8C133.7 842.5 265.9 923.4 417 923.4c151.1 0 280.6-80.9 353.4-199.6 8-13.5 13.4-27 13.4-40.5z m-677.1 64.8h10.8-10.8zM85.1 740s2.7 2.7 5.4 2.7c-2.7 0-2.7-2.7-5.4-2.7z m8.1 5.3c2.7 0 5.4 2.7 10.8 2.7-2.7-2.7-8.1-2.7-10.8-2.7z m558.4-72.8v10.8c-2.7-5.4-2.7-8.1 0-10.8zM727.1 748.1h-10.8 10.8z m35.1-16.2c-2.7 2.7-5.4 5.4-8.1 5.4 2.7-2.7 5.4-2.7 8.1-5.4z m-10.8 8.1c-2.7 0-5.4 2.7-8.1 5.4 2.7-2.7 5.4-5.4 8.1-5.4z m-10.8 2.7c-2.7 0-8.1 2.7-10.8 2.7 5.4-0.1 8.1-0.1 10.8-2.7z m24.3-16.2c2.7-2.7 5.4-5.4 5.4-8.1-2.7 5.4-2.7 8.1-5.4 8.1z m0 0" fill="#F8B616" p-id="7347"></path><path d="M657 669.8c0 37.8 29.7 67.4 67.4 67.4 37.8 0 67.4-29.7 67.4-67.4 0-37.8-29.7-67.4-67.4-67.4S657 632 657 669.8" fill="#289349" p-id="7348"></path><path d="M648.9 683.3c0 37.8 29.7 67.4 67.4 67.4 37.8 0 67.4-29.7 67.4-67.4 0-37.8-29.7-67.4-67.4-67.4s-67.4 29.6-67.4 67.4" fill="#F8B616" p-id="7349"></path><path d="M44.6 669.8c0 37.8 29.7 67.4 67.4 67.4 37.8 0 67.4-29.7 67.4-67.4 0-37.8-29.7-67.4-67.4-67.4S44.6 632 44.6 669.8" fill="#289349" p-id="7350"></path><path d="M52.7 683.3c0 37.8 29.7 67.4 67.4 67.4 37.8 0 67.4-29.7 67.4-67.4 0-37.8-29.7-67.4-67.4-67.4s-67.4 29.6-67.4 67.4M889 856c0 24.3 13.5 45.9 32.4 56.7 21.6 10.8 45.9 10.8 67.4 0 21.6-10.8 32.4-32.4 32.4-56.7 0-24.3-13.5-45.9-32.4-56.7-21.6-10.8-45.9-10.8-67.4 0-18.9 10.8-32.4 32.4-32.4 56.7" fill="#F8B616" p-id="7351"></path></svg>