<?xml version="1.0" standalone="no"?><!DOCTYPE svg PUBLIC "-//W3C//DTD SVG 1.1//EN" "http://www.w3.org/Graphics/SVG/1.1/DTD/svg11.dtd"><svg t="1683689835146" class="icon" viewBox="0 0 1024 1024" version="1.1" xmlns="http://www.w3.org/2000/svg" p-id="10763" xmlns:xlink="http://www.w3.org/1999/xlink" width="200" height="200"><path d="M363.237141 567.372441c-13.127835 13.214535-24.109843 24.377168-32.895449 33.379524-7.26113 7.47788-12.398109 12.716009-15.302561 15.678261l-1.502801 1.531701c-4.992479 5.028604-8.720581 9.450307-11.140958 13.19286-2.528752 3.894278-4.862429 8.344881-6.964905 13.243435l-0.6069 1.249926c-0.874226 1.596726-2.911677 5.982304-6.75538 17.527863-3.085077 9.233557-6.36523 19.731489-9.775432 31.219248-3.374077 11.386608-6.574755 22.390291-9.544232 32.989374-2.824977 10.042757-4.602328 17.614563-5.288704 22.505891-0.953701 6.30743-0.53465 9.406957-0.223975 10.649658 1.213801 0.289 4.775728 0.556325 8.959007 0.079475 4.046003-0.62135 11.502208-2.333677 21.581091-5.014154 10.562958-2.810527 21.617216-6.090679 32.866549-9.746532 11.776759-3.814803 23.004417-7.709081 33.357849-11.567233 10.635208-3.973753 18.214238-7.123855 23.163367-9.623707l0.758626-0.354025c4.508403-1.957976 8.930107-4.595103 13.142285-7.839131 4.638453-3.569153 8.987907-7.18888 12.947209-10.750808l0.975376-0.801976c0.39015-0.3179 2.853877-2.478177 13.48186-13.142285 8.409906-8.417131 18.951189-19.131814 31.732223-32.172949 12.629309-12.889409 26.83367-27.072095 43.429507-43.342807l47.83676-48.682086L666.470613 447.950328 574.532421 355.10901 363.237141 567.372441z" fill="#0061b0" p-id="10764"></path><path d="M628.61881 736.957765l24.774543 0 0 24.817893-24.774543 0 0-24.817893Z" fill="#0061b0" p-id="10765"></path><path d="M740.844818 374.161349c3.706428-3.533028 7.925831-7.629606 12.622084-12.361984 2.767177-3.027277 4.970804-6.46638 6.386905-10.100557 1.358301-3.569153 2.023001-7.022705 2.023001-10.476258 0-4.306103-0.397375-8.373781-1.184901-12.072984-0.823651-3.923178-1.820701-7.18888-2.955027-9.695957-4.840754-10.418458-11.986284-20.87304-21.169266-30.930248-9.024032-9.768207-17.101588-16.566937-23.958118-20.16499-3.193452-1.575051-7.152755-3.092302-11.466083-4.349453-4.262753-1.286051-8.583306-1.979651-13.315685-2.160277l-1.047626-0.01445c-3.908728 0-7.925831 0.614125-11.942934 1.827926-4.233853 1.271601-8.482156 3.583603-12.643759 6.85653-3.800353 3.121202-9.117957 7.868031-15.569886 13.937035-2.167502 2.051902-4.233853 4.002653-6.20628 5.866704l91.786467 92.219968C734.746913 380.020828 737.622465 377.224751 740.844818 374.161349z" fill="#0061b0" p-id="10766"></path><path d="M519.297255 736.957765l24.760093 0 0 24.817893-24.760093 0 0-24.817893Z" fill="#0061b0" p-id="10767"></path><path d="M512.801976 10.266733C235.809723 10.266733 11.263783 234.812672 11.263783 511.81215c0 276.970578 224.545939 501.516517 501.538192 501.516517 276.999478 0 501.552642-224.538714 501.552642-501.516517C1014.361843 234.812672 789.801453 10.266733 512.801976 10.266733zM609.862697 279.275355c4.746828-4.363903 10.389558-9.645382 16.928187-15.844437 7.07328-6.647005 12.723234-11.690059 17.311113-15.454286 7.23223-5.700529 14.695661-9.674282 22.397516-11.993509 6.72648-2.030226 13.55411-3.063402 20.29504-3.063402l2.023001 0.0289c7.23223 0.27455 14.11766 1.394426 20.56959 3.337952 5.801679 1.697876 11.328808 3.829253 16.335737 6.300205 10.237832 5.360954 20.649065 13.937035 32.144049 26.371269 11.220433 12.296959 20.00604 25.208043 26.154519 38.437028 2.080802 4.616778 3.684753 9.717632 4.963579 15.750512 1.199351 5.664404 1.806251 11.740634 1.806251 18.062513 0 6.921555-1.329401 13.922585-3.937628 20.808015-2.723827 7.051605-6.907105 13.662485-12.470359 19.717039-5.295929 5.360954-9.717632 9.638157-13.590235 13.330135-3.699203 3.525803-6.91433 6.661455-9.674282 9.414182-3.460778 3.460778-6.69758 6.502505-9.688732 9.117957l-10.194482 8.908432L598.779539 289.448162 609.862697 279.275355zM572.964595 790.675679 490.397234 790.675679 490.397234 708.057744l82.560135 0L572.95737 790.675679zM682.293375 790.675679 599.718789 790.675679 599.718789 708.057744l82.574585 0L682.293375 790.675679zM568.008241 587.898681l-47.959585 48.812136c-16.653637 16.328512-30.720723 30.366697-43.212757 43.118832-12.860509 13.12061-23.474042 23.914768-31.912848 32.360799-10.953108 10.989233-14.23326 13.980385-15.960037 15.360361-4.392803 3.937628-9.190207 7.918606-14.26216 11.820109-5.982304 4.616778-12.340309 8.409906-18.900614 11.292683-5.946179 2.969477-14.13211 6.37968-25.699344 10.707458-10.772483 4.009878-22.383066 8.026981-34.535525 11.971834-11.733409 3.814803-23.300642 7.239455-34.36935 10.180032-11.249333 2.991152-19.507514 4.869654-25.251393 5.743879-3.460778 0.397375-6.141254 0.541875-8.612206 0.541875-11.791209 0-20.663515-3.518578-26.364044-10.461808-6.372455-7.774106-8.366556-18.777789-6.105129-33.6324 0.852551-6.090679 2.839427-14.695661 6.054554-26.147294 3.012827-10.729133 6.24963-21.855641 9.659832-33.386749 3.496903-11.798434 6.88543-22.614267 10.064432-32.144049 3.402977-10.223382 6.112354-17.137713 8.482156-21.631666 2.687702-6.170155 5.714979-11.870684 9.002357-16.949862 3.547478-5.491004 8.402681-11.314358 14.832936-17.787963l1.452226-1.481126c2.882777-2.940577 7.983631-8.135356 15.223086-15.591561 8.857856-9.081832 19.90489-20.302265 33.112199-33.596275l231.83597-232.905271 132.607747 133.915473L568.008241 587.898681zM791.65828 790.675679 709.090919 790.675679 709.090919 708.057744l82.574585 0L791.665505 790.675679z" fill="#0061b0" p-id="10768"></path><path d="M737.990941 736.957765l24.774543 0 0 24.817893-24.774543 0 0-24.817893Z" fill="#0061b0" p-id="10769"></path></svg>