<?xml version="1.0" standalone="no"?><!DOCTYPE svg PUBLIC "-//W3C//DTD SVG 1.1//EN" "http://www.w3.org/Graphics/SVG/1.1/DTD/svg11.dtd"><svg t="1743920778425" class="icon" viewBox="0 0 1366 1024" version="1.1" xmlns="http://www.w3.org/2000/svg" p-id="10911" xmlns:xlink="http://www.w3.org/1999/xlink" width="341.5" height="256"><path d="M1167.059 926.118L933.647 692.706c55.718-72.282 88.847-162.635 88.847-260.518 0-233.412-189.741-424.659-424.659-424.659-233.411 0-424.659 189.742-424.659 424.66 0 234.917 189.742 424.658 424.66 424.658 97.882 0 188.235-33.13 260.517-88.847l231.906 231.906c10.541 10.541 24.094 15.059 37.647 15.059 13.553 0 27.106-4.518 37.647-15.06 21.082-19.576 21.082-52.705 1.506-73.787zM281.6 433.694c0-174.682 143.059-317.741 317.741-317.741 176.188 0 317.741 143.059 317.741 317.741s-143.058 317.741-317.74 317.741c-176.19 0-317.742-143.059-317.742-317.74z m0 0" p-id="10912" fill="#107baa"></path></svg>